<?xml version="1.0" encoding="utf-8"?>
<!-- Generator: Adobe Illustrator 26.0.3, SVG Export Plug-In . SVG Version: 6.00 Build 0)  -->
<svg version="1.1" id="Layer_1" xmlns="http://www.w3.org/2000/svg" xmlns:xlink="http://www.w3.org/1999/xlink" width="98" height="67"
	 viewBox="0 0 98 67" style="enable-background:new 0 0 98 67;" xml:space="preserve">
<style type="text/css">
	.st0{fill:none;}
	.st1{fill:url(#SVGID_1_);}
	.st2{fill:url(#SVGID_00000062872784970635878210000010159113647647244172_);}
</style>
<rect class="st0" width="98" height="67"/>
<g>
	<linearGradient id="SVGID_1_" gradientUnits="userSpaceOnUse" x1="25.0733" y1="19.1024" x2="70.3249" y2="74.2528">
		<stop  offset="0" style="stop-color:#394897"/>
		<stop  offset="1" style="stop-color:#C94B95"/>
	</linearGradient>
	<polygon class="st1" points="32.4,19 61.9,36.1 61.9,26.6 32.4,9.6 20,16.7 20,50.3 49,67 57.1,62.3 57.1,52.8 49,57.5 28.2,45.5 
		28.2,21.5 	"/>
	
		<linearGradient id="SVGID_00000097501825111225843770000002377484365289493661_" gradientUnits="userSpaceOnUse" x1="39.552" y1="7.2224" x2="84.8036" y2="62.3729">
		<stop  offset="0" style="stop-color:#394897"/>
		<stop  offset="1" style="stop-color:#C94B95"/>
	</linearGradient>
	<polygon style="fill:url(#SVGID_00000097501825111225843770000002377484365289493661_);" points="49,0 40.9,4.7 40.9,14.2 49,9.5 
		69.8,21.5 69.8,45.5 65.6,48 36.1,30.9 36.1,40.4 65.6,57.4 78,50.3 78,16.7 	"/>
</g>
</svg>
