<?xml version="1.0" encoding="utf-8"?>
<!-- Generator: Adobe Illustrator 26.0.3, SVG Export Plug-In . SVG Version: 6.00 Build 0)  -->
<svg width="136" height="92" version="1.1" id="Layer_1" xmlns="http://www.w3.org/2000/svg" xmlns:xlink="http://www.w3.org/1999/xlink"
	 viewBox="0 0 136 92" style="enable-background:new 0 0 136 92;" xml:space="preserve">
<style type="text/css">
	.st0{display:none;fill:#FFFFFF;}
	.st1{display:none;}
	.st2{display:inline;fill:#F9666E;}
	.st3{display:inline;fill:none;stroke:#756A6A;}
	.st4{display:inline;fill:#FFFFFF;}
	.st5{display:inline;fill:url(#SVGID_1_);}
	.st6{display:inline;fill:none;stroke:#000000;}
	.st7{fill:#EEEEEF;}
	.st8{fill:url(#SVGID_00000013194630130047659480000000116508480389513150_);}
	.st9{fill:url(#SVGID_00000156552245293467418460000007005298961880142001_);}
</style>
<path class="st0" d="M1.7,86h4.2l0.5-7.7c0.1-1.3,0-2.9,0-2.9h0c0,0,0.6,1.8,1,2.9l1.8,5h3.6l1.8-5c0.4-1.1,1-2.9,1-2.9h0
	c0,0-0.1,1.6,0,2.9l0.5,7.7h4.2L19,68.8h-4.6l-2.5,7.2c-0.4,1.1-0.9,2.8-0.9,2.8h0c0,0-0.5-1.7-0.9-2.8l-2.5-7.2H3.1L1.7,86z
	 M24.6,86h11.1v-3.6h-6.9v-3.2H34v-3.6h-5.2v-3.1h6.6v-3.6H24.6V86z M42.7,86h4.2V72.4h5.2v-3.6H37.5v3.6h5.2V86z M55,86h4.2v-5.8h2
	l3,5.8h4.7l-3.3-6c-0.4-0.7-0.6-1-0.6-1v0c1.7-0.9,2.6-2.9,2.6-4.7c0-2.5-1.2-4.2-3.2-5c-0.7-0.3-1.6-0.4-3.3-0.4h-6V86z M59.2,76.6
	v-4.2h1.4c2.1,0,2.6,0.8,2.6,2.1c0,1.4-0.8,2.1-2.2,2.1H59.2z M70.8,77.3c0,5,3.8,9,9,9c5.2,0,9-3.9,9-9c0-4.9-3.8-8.8-9-8.8
	C74.6,68.6,70.8,72.4,70.8,77.3z M75.2,77.3c0-2.8,2.1-4.9,4.6-4.9s4.6,2.1,4.6,4.9c0,2.9-2.1,5.1-4.6,5.1S75.2,80.2,75.2,77.3z
	 M92.4,86h4.2v-8c0-1.1-0.2-2.9-0.2-2.9h0c0,0,0.8,1.8,1.4,2.9l4.8,8h4.2V68.8h-4.2v8c0,1.1,0.2,2.9,0.2,2.9h0c0,0-0.8-1.8-1.4-2.9
	l-4.8-8h-4.2V86z M111.6,86h4.2V68.8h-4.2V86z M119.4,77.4c0,5.1,3.6,8.9,9,8.9c4.5,0,6.9-2.9,6.9-2.9l-2.2-3.1c0,0-2,2.1-4.6,2.1
	c-3.2,0-4.8-2.6-4.8-5.2c0-2.5,1.6-4.9,4.8-4.9c2.4,0,4.3,1.8,4.3,1.8l1.9-3.2c0,0-2.2-2.4-6.4-2.4
	C123.2,68.6,119.4,72.4,119.4,77.4z"/>
<g class="st1">
	<path class="st2" d="M90.1,2.8l15.2,47.4c0.8,2.6-1.1,5.2-3.8,5.2H90.3c-1.7,0-3.3-1.1-3.8-2.8l-15-47.4C70.7,2.6,72.6,0,75.3,0h11
		C88,0,89.6,1.1,90.1,2.8z"/>
	<path class="st3" d="M90.1,2.8l15.2,47.4c0.8,2.6-1.1,5.2-3.8,5.2H90.3c-1.7,0-3.3-1.1-3.8-2.8l-15-47.4C70.7,2.6,72.6,0,75.3,0h11
		C88,0,89.6,1.1,90.1,2.8z"/>
</g>
<g class="st1">
	<path class="st4" d="M75.5,37.8L64.8,3.4C64.2,1.4,62.3,0,60.1,0c-2.6,0-4.8,2.1-4.9,4.7l-1.3,25.7c0,0.9,0.1,1.8,0.3,2.7l5.8,19.5
		c0.5,1.7,2.1,2.9,3.8,2.9h5.4c1.7,0,3.3-1.1,3.8-2.8l2.4-7.5C76.3,42.7,76.3,40.2,75.5,37.8z"/>
	
		<linearGradient id="SVGID_1_" gradientUnits="userSpaceOnUse" x1="57.4839" y1="65.5209" x2="68.9839" y2="62.5209" gradientTransform="matrix(1 0 0 -1 0 92)">
		<stop  offset="0" style="stop-color:#000000;stop-opacity:0.25"/>
		<stop  offset="0.9115" style="stop-color:#FFFFFF;stop-opacity:0"/>
	</linearGradient>
	<path class="st5" d="M75.5,37.8L64.8,3.4C64.2,1.4,62.3,0,60.1,0c-2.6,0-4.8,2.1-4.9,4.7l-1.3,25.7c0,0.9,0.1,1.8,0.3,2.7l5.8,19.5
		c0.5,1.7,2.1,2.9,3.8,2.9h5.4c1.7,0,3.3-1.1,3.8-2.8l2.4-7.5C76.3,42.7,76.3,40.2,75.5,37.8z"/>
</g>
<g class="st1">
	<path class="st2" d="M49.3,0h11C63,0,65,2.6,64.2,5.2L49.3,52.9c-0.5,1.7-2.1,2.8-3.8,2.8h-11c-2.7,0-4.6-2.6-3.8-5.2L45.5,2.8
		C46,1.1,47.6,0,49.3,0z"/>
	<path class="st6" d="M49.3,0h11C63,0,65,2.6,64.2,5.2L49.3,52.9c-0.5,1.7-2.1,2.8-3.8,2.8h-11c-2.7,0-4.6-2.6-3.8-5.2L45.5,2.8
		C46,1.1,47.6,0,49.3,0z"/>
</g>
<g>
	<g>
		<path class="st7" d="M42.8,60h4.8v22.7h-4.1L33.2,68.5v14.2h-4.8V60h4.4l10,13.9V60z"/>
		<path class="st7" d="M66.5,65.2h3.5v17.5h-3.7l-0.4-1.6c-1.6,1.4-3.5,2.1-5.7,2.1c-1.7,0-3.3-0.4-4.7-1.2s-2.5-1.9-3.3-3.3
			s-1.2-3-1.2-4.7c0-1.7,0.4-3.3,1.2-4.7c0.8-1.4,1.9-2.5,3.3-3.3s3-1.2,4.7-1.2c2.2,0,4.1,0.7,5.8,2.1L66.5,65.2z M57.2,77.4
			c0.9,0.9,2,1.4,3.4,1.4s2.5-0.5,3.4-1.4c0.9-0.9,1.4-2.1,1.4-3.4c0-1.4-0.5-2.5-1.4-3.4c-0.9-0.9-2-1.4-3.4-1.4s-2.5,0.5-3.4,1.4
			c-0.9,0.9-1.4,2.1-1.4,3.4C55.9,75.3,56.3,76.5,57.2,77.4z"/>
		<path class="st7" d="M84.2,64.7c1.7,0,3.3,0.4,4.7,1.2c1.4,0.8,2.5,1.9,3.3,3.3c0.8,1.4,1.2,3,1.2,4.7s-0.4,3.3-1.2,4.7
			c-0.8,1.4-1.9,2.5-3.3,3.3c-1.4,0.8-3,1.2-4.7,1.2c-1.8,0-3.4-0.5-4.8-1.5V89h-4.7V65.2h3.1l0.8,1.6C80.1,65.4,82,64.7,84.2,64.7z
			 M80.4,77.4c0.9,0.9,2,1.4,3.4,1.4c1.4,0,2.5-0.5,3.4-1.4s1.4-2.1,1.4-3.4c0-1.4-0.5-2.5-1.4-3.4s-2-1.4-3.4-1.4
			c-1.4,0-2.5,0.5-3.4,1.4C79.5,71.4,79,72.6,79,74C79,75.3,79.5,76.5,80.4,77.4z"/>
		<path class="st7" d="M101.9,78.4h7.4v4.4H94.8v-0.5l7.5-12.7h-6.7v-4.3h13.8v0.6L101.9,78.4z"/>
	</g>
</g>
<g>
	
		<linearGradient id="SVGID_00000132774586335496367540000016160677839461057691_" gradientUnits="userSpaceOnUse" x1="47.9151" y1="16.0352" x2="85.9009" y2="62.3304">
		<stop  offset="0" style="stop-color:#384797"/>
		<stop  offset="1" style="stop-color:#CA4A94"/>
	</linearGradient>
	<polygon style="fill:url(#SVGID_00000132774586335496367540000016160677839461057691_);" points="54.1,16 78.8,30.3 78.8,22.3 
		54.1,8.1 43.6,14.1 43.6,42.2 68,56.2 74.8,52.3 74.8,44.4 68,48.3 50.5,38.2 50.5,18 	"/>
	
		<linearGradient id="SVGID_00000103966016763762085070000014709245164031694269_" gradientUnits="userSpaceOnUse" x1="60.069" y1="6.0628" x2="98.0548" y2="52.358">
		<stop  offset="0" style="stop-color:#384797"/>
		<stop  offset="1" style="stop-color:#CA4A94"/>
	</linearGradient>
	<polygon style="fill:url(#SVGID_00000103966016763762085070000014709245164031694269_);" points="68,0 61.2,3.9 61.2,11.9 68,7.9 
		85.5,18 85.5,38.2 81.9,40.3 57.2,26 57.2,33.9 81.9,48.2 92.4,42.2 92.4,14.1 	"/>
</g>
</svg>
