<?xml version="1.0" encoding="utf-8"?>
<!-- Generator: Adobe Illustrator 26.0.3, SVG Export Plug-In . SVG Version: 6.00 Build 0)  -->
<svg version="1.1" id="Layer_1" xmlns="http://www.w3.org/2000/svg" xmlns:xlink="http://www.w3.org/1999/xlink" width="269" height="56"
	 viewBox="0 0 269 56" style="enable-background:new 0 0 269 56;" xml:space="preserve">
<style type="text/css">
	.st0{display:none;fill:#FFFFFF;}
	.st1{display:none;fill:#EF305E;}
	.st2{display:none;}
	.st3{display:inline;fill:#FFFFFF;}
	.st4{display:inline;fill:url(#SVGID_1_);}
	.st5{display:inline;}
	.st6{fill:url(#SVGID_00000082341401738898434220000008981158482301678225_);}
	.st7{fill:url(#SVGID_00000072990678943109483190000005792813682784429441_);}
	.st8{fill:#EEEEEF;}
	.st9{fill:url(#SVGID_00000144330774096066956630000017775251171254689417_);}
	.st10{fill:url(#SVGID_00000165939964578317851570000002728153498235788973_);}
</style>
<path class="st0" d="M93.1,42h5.4l1.3-16.7c0.1-2,0-4.7,0-4.7h0.1c0,0,0.9,2.9,1.6,4.7l4.8,11.5h4.7l4.8-11.5
	c0.7-1.7,1.6-4.6,1.6-4.6h0.1c0,0-0.1,2.6,0,4.6l1.3,16.7h5.4l-2.4-29.8H116l-5.8,14.7c-0.7,1.8-1.5,4.4-1.5,4.4h-0.1
	c0,0-0.8-2.6-1.5-4.4l-5.8-14.7h-5.8L93.1,42z M128.5,31.3c0,6.1,4.4,11.2,11.5,11.2c5.3,0,8.6-3.1,8.6-3.1l-2.1-3.8
	c0,0-2.7,2.4-6.2,2.4c-3.2,0-6.1-1.9-6.4-5.7h14.8c0,0,0.1-1.4,0.1-2.1c0-5.7-3.3-10.2-9.5-10.2C133,20.1,128.5,24.7,128.5,31.3z
	 M134.2,28.6c0.5-2.8,2.4-4.5,5.1-4.5c2.4,0,4.2,1.6,4.2,4.5H134.2z M154.2,34.1c0,7.2,5.9,8.1,8.9,8.1c1,0,1.6-0.1,1.6-0.1v-4.7
	c0,0-0.4,0.1-1,0.1c-1.5,0-4.2-0.5-4.2-4v-8.3h4.9V21h-4.9v-6.2h-5.2V21h-2.9v4.2h2.8L154.2,34.1L154.2,34.1z M169.1,42h5.3v-8.5
	c0-1.3,0.1-2.4,0.5-3.5c1-3.2,3.6-4.5,5.8-4.5c0.7,0,1.3,0.1,1.3,0.1v-5.2c0,0-0.5-0.1-1-0.1c-3.3,0-5.8,2.4-6.8,5.5h-0.1
	c0,0,0.1-0.7,0.1-1.5v-3.7h-5.1V42z M184,31.3c0,6.6,5.2,11.2,11.8,11.2c6.5,0,11.8-4.6,11.8-11.2s-5.2-11.2-11.8-11.2
	C189.3,20.1,184,24.7,184,31.3z M189.4,31.3c0-3.9,2.9-6.7,6.4-6.7c3.4,0,6.3,2.7,6.3,6.7s-2.9,6.7-6.3,6.7
	C192.3,38,189.4,35.3,189.4,31.3z M211.9,42h5.3v-9.8c0-1,0.1-2,0.4-2.9c0.8-2.6,2.9-4.4,5.8-4.4c2.7,0,3.4,1.8,3.4,4.4V42h5.3V28.2
	c0-5.7-2.7-8.1-7.4-8.1c-4.3,0-6.7,2.6-7.6,4.5H217c0,0,0.1-0.7,0.1-1.5v-2.5H212L211.9,42L211.9,42z M237.6,16.9h5.3v-4.7h-5.3
	V16.9z M237.6,42h5.3V20.6h-5.3V42z M247.3,31.3c0,6.2,4.5,11.2,11.6,11.2c5.8,0,8.8-3.5,8.8-3.5l-2.1-3.8c0,0-2.7,2.7-6.3,2.7
	c-4.1,0-6.7-3.1-6.7-6.7c0-3.7,2.6-6.6,6.5-6.6c3.4,0,5.6,2.3,5.6,2.3l2.4-3.7c0,0-2.6-3.2-8.2-3.2
	C251.8,20.1,247.3,25.2,247.3,31.3z"/>
<path class="st1" d="M61.1,2.8l15.2,47.4c0.8,2.6-1.1,5.2-3.8,5.2H61.3c-1.7,0-3.3-1.1-3.8-2.8l-15-47.4C41.7,2.6,43.6,0,46.3,0h11
	C59,0,60.6,1.1,61.1,2.8z"/>
<g class="st2">
	<path class="st3" d="M46.5,37.8L35.8,3.4c-0.6-2-2.5-3.4-4.7-3.4c-2.6,0-4.8,2.1-4.9,4.7l-1.3,25.7c0,0.9,0.1,1.8,0.3,2.7L31,52.6
		c0.5,1.7,2.1,2.9,3.8,2.9h5.4c1.7,0,3.3-1.1,3.8-2.8l2.4-7.5C47.3,42.7,47.3,40.2,46.5,37.8z"/>
	
		<linearGradient id="SVGID_1_" gradientUnits="userSpaceOnUse" x1="28.4638" y1="48.5556" x2="39.9638" y2="51.5556" gradientTransform="matrix(1 0 0 1 0 -22)">
		<stop  offset="0" style="stop-color:#000000;stop-opacity:0.25"/>
		<stop  offset="0.9115" style="stop-color:#FFFFFF;stop-opacity:0"/>
	</linearGradient>
	<path class="st4" d="M46.5,37.8L35.8,3.4c-0.6-2-2.5-3.4-4.7-3.4c-2.6,0-4.8,2.1-4.9,4.7l-1.3,25.7c0,0.9,0.1,1.8,0.3,2.7L31,52.6
		c0.5,1.7,2.1,2.9,3.8,2.9h5.4c1.7,0,3.3-1.1,3.8-2.8l2.4-7.5C47.3,42.7,47.3,40.2,46.5,37.8z"/>
</g>
<path class="st1" d="M20.3,0h11C34,0,36,2.6,35.2,5.2L20.3,52.9c-0.5,1.7-2.1,2.8-3.8,2.8h-11c-2.7,0-4.6-2.6-3.8-5.2L16.5,2.8
	C17,1.1,18.6,0,20.3,0z"/>
<g class="st2">
	<g class="st5">
		
			<linearGradient id="SVGID_00000049936548700253021870000015459576245073169335_" gradientUnits="userSpaceOnUse" x1="18.807" y1="42.0399" x2="56.6293" y2="-4.056" gradientTransform="matrix(1 0 0 -1 0 58)">
			<stop  offset="0" style="stop-color:#38B9EC"/>
			<stop  offset="0.771" style="stop-color:#594C9A"/>
		</linearGradient>
		<polygon style="fill:url(#SVGID_00000049936548700253021870000015459576245073169335_);" points="24.9,15.9 49.6,30.2 49.6,22.2 
			24.9,8 14.5,14 14.5,42 38.8,56 45.6,52.1 45.6,44.2 38.8,48.1 21.4,38 21.4,18 		"/>
		
			<linearGradient id="SVGID_00000160906525032456311890000016773682258296786072_" gradientUnits="userSpaceOnUse" x1="30.8664" y1="51.9347" x2="68.6888" y2="5.8387" gradientTransform="matrix(1 0 0 -1 0 58)">
			<stop  offset="0" style="stop-color:#38B9EC"/>
			<stop  offset="0.771" style="stop-color:#594C9A"/>
		</linearGradient>
		<polygon style="fill:url(#SVGID_00000160906525032456311890000016773682258296786072_);" points="38.8,0 32,3.9 32,11.8 38.8,7.9 
			56.2,18 56.2,38 52.7,40.1 28,25.8 28,33.8 52.7,48 63,42 63,14 		"/>
	</g>
</g>
<g>
	<g>
		<path class="st8" d="M90.6,16.3h4.9v23.3h-4.2L80.8,25v14.6h-4.9V16.3h4.5l10.2,14.2V16.3z"/>
		<path class="st8" d="M114.9,21.6h3.6v18h-3.8l-0.4-1.6c-1.6,1.4-3.6,2.1-5.8,2.1c-1.8,0-3.4-0.4-4.8-1.2s-2.6-2-3.4-3.4
			s-1.2-3.1-1.2-4.9c0-1.8,0.4-3.4,1.2-4.8c0.8-1.4,1.9-2.6,3.4-3.4c1.4-0.8,3-1.2,4.8-1.2c2.3,0,4.3,0.7,5.9,2.2L114.9,21.6z
			 M105.4,34.1c0.9,0.9,2.1,1.4,3.5,1.4s2.6-0.5,3.5-1.4s1.4-2.1,1.4-3.5s-0.5-2.6-1.4-3.5s-2.1-1.4-3.5-1.4s-2.6,0.5-3.5,1.4
			s-1.4,2.1-1.4,3.5S104.5,33.2,105.4,34.1z"/>
		<path class="st8" d="M133,21.1c1.8,0,3.4,0.4,4.8,1.2s2.6,2,3.4,3.4c0.8,1.5,1.2,3.1,1.2,4.9c0,1.8-0.4,3.4-1.2,4.9
			s-1.9,2.6-3.4,3.4c-1.4,0.8-3,1.2-4.8,1.2s-3.5-0.5-4.9-1.5v7.5h-4.9V21.6h3.2l0.8,1.6C128.9,21.8,130.8,21.1,133,21.1z
			 M129.1,34.1c0.9,0.9,2.1,1.4,3.5,1.4s2.6-0.5,3.5-1.4s1.4-2.1,1.4-3.5s-0.5-2.6-1.4-3.5s-2.1-1.4-3.5-1.4s-2.6,0.5-3.5,1.4
			s-1.4,2.1-1.4,3.5C127.7,32,128.2,33.2,129.1,34.1z"/>
		<path class="st8" d="M151.2,35.1h7.6v4.5H144v-0.5l7.7-13h-6.9v-4.4h14.1v0.7L151.2,35.1z"/>
	</g>
</g>
<g>
	
		<linearGradient id="SVGID_00000059295072257860384130000018373965176881524378_" gradientUnits="userSpaceOnUse" x1="4.2474" y1="15.975" x2="42.042" y2="62.0371">
		<stop  offset="0" style="stop-color:#384797"/>
		<stop  offset="1" style="stop-color:#CA4A94"/>
	</linearGradient>
	<polygon style="fill:url(#SVGID_00000059295072257860384130000018373965176881524378_);" points="10.4,15.9 35,30.2 35,22.3 
		10.4,8 0,14 0,42 24.2,56 31,52.1 31,44.2 24.2,48.1 6.8,38 6.8,18 	"/>
	
		<linearGradient id="SVGID_00000111188098404001123830000017522789078227281337_" gradientUnits="userSpaceOnUse" x1="16.3401" y1="6.0527" x2="54.1347" y2="52.1149">
		<stop  offset="0" style="stop-color:#384797"/>
		<stop  offset="1" style="stop-color:#CA4A94"/>
	</linearGradient>
	<polygon style="fill:url(#SVGID_00000111188098404001123830000017522789078227281337_);" points="24.2,0 17.4,3.9 17.4,11.8 
		24.2,7.9 41.6,18 41.6,38 38.1,40.1 13.5,25.8 13.5,33.7 38.1,48 48.5,42 48.5,14 	"/>
</g>
</svg>
