<?xml version="1.0" encoding="utf-8"?>
<!-- Generator: Adobe Illustrator 26.0.3, SVG Export Plug-In . SVG Version: 6.00 Build 0)  -->
<svg version="1.1" id="Layer_1" xmlns="http://www.w3.org/2000/svg" xmlns:xlink="http://www.w3.org/1999/xlink" width="269" height="56"
	 viewBox="0 0 269 56" style="enable-background:new 0 0 269 56;" xml:space="preserve">
<style type="text/css">
	.st0{display:none;fill:#0D2451;}
	.st1{display:none;fill:#EF305E;}
	.st2{display:none;}
	.st3{display:inline;fill:#F4F4F4;}
	.st4{display:inline;fill:url(#SVGID_1_);}
	.st5{fill:#221F1F;}
	.st6{display:inline;}
	.st7{fill:url(#SVGID_00000103943098301959421050000004253973475879790002_);}
	.st8{fill:url(#SVGID_00000177442442300394924340000012469326375445053063_);}
	.st9{fill:url(#SVGID_00000003827107545231166690000001701732028447884687_);}
	.st10{fill:url(#SVGID_00000168805309865767310170000002541516879386462127_);}
</style>
<path class="st0" d="M93.1,42h5.4l1.3-16.7c0.1-2,0-4.7,0-4.7h0.1c0,0,0.9,2.9,1.6,4.7l4.8,11.5h4.7l4.8-11.5
	c0.7-1.7,1.6-4.6,1.6-4.6h0.1c0,0-0.1,2.6,0,4.6l1.3,16.7h5.4l-2.4-29.8H116l-5.8,14.7c-0.7,1.8-1.5,4.4-1.5,4.4h-0.1
	c0,0-0.8-2.6-1.5-4.4l-5.8-14.7h-5.8L93.1,42z M128.5,31.3c0,6.1,4.4,11.2,11.5,11.2c5.3,0,8.6-3.1,8.6-3.1l-2.1-3.8
	c0,0-2.7,2.4-6.2,2.4c-3.2,0-6.1-1.9-6.4-5.7h14.8c0,0,0.1-1.4,0.1-2.1c0-5.7-3.3-10.2-9.5-10.2C133,20.1,128.5,24.7,128.5,31.3z
	 M134.2,28.6c0.5-2.8,2.4-4.5,5.1-4.5c2.4,0,4.2,1.6,4.2,4.5H134.2z M154.2,34.1c0,7.2,5.9,8.1,8.9,8.1c1,0,1.6-0.1,1.6-0.1v-4.7
	c0,0-0.4,0.1-1,0.1c-1.5,0-4.2-0.5-4.2-4v-8.3h4.9V21h-4.9v-6.2h-5.2V21h-2.9v4.2h2.8L154.2,34.1L154.2,34.1z M169.1,42h5.3v-8.5
	c0-1.3,0.1-2.4,0.5-3.5c1-3.2,3.6-4.5,5.8-4.5c0.7,0,1.3,0.1,1.3,0.1v-5.2c0,0-0.5-0.1-1-0.1c-3.3,0-5.8,2.4-6.8,5.5h-0.1
	c0,0,0.1-0.7,0.1-1.5v-3.7h-5.1V42z M184,31.3c0,6.6,5.2,11.2,11.8,11.2c6.5,0,11.8-4.6,11.8-11.2s-5.2-11.2-11.8-11.2
	C189.3,20.1,184,24.7,184,31.3z M189.4,31.3c0-3.9,2.9-6.7,6.4-6.7c3.4,0,6.3,2.7,6.3,6.7s-2.9,6.7-6.3,6.7
	C192.3,38,189.4,35.3,189.4,31.3z M211.9,42h5.3v-9.8c0-1,0.1-2,0.4-2.9c0.8-2.6,2.9-4.4,5.8-4.4c2.7,0,3.4,1.8,3.4,4.4V42h5.3V28.2
	c0-5.7-2.7-8.1-7.4-8.1c-4.3,0-6.7,2.6-7.6,4.5H217c0,0,0.1-0.7,0.1-1.5v-2.5H212L211.9,42L211.9,42z M237.6,16.9h5.3v-4.7h-5.3
	V16.9z M237.6,42h5.3V20.6h-5.3V42z M247.3,31.3c0,6.2,4.5,11.2,11.6,11.2c5.8,0,8.8-3.5,8.8-3.5l-2.1-3.8c0,0-2.7,2.7-6.3,2.7
	c-4.1,0-6.7-3.1-6.7-6.7c0-3.7,2.6-6.6,6.5-6.6c3.4,0,5.6,2.3,5.6,2.3l2.4-3.7c0,0-2.6-3.2-8.2-3.2
	C251.8,20.1,247.3,25.2,247.3,31.3z"/>
<path class="st1" d="M61.1,2.8l15.2,47.4c0.8,2.6-1.1,5.2-3.8,5.2H61.3c-1.7,0-3.3-1.1-3.8-2.8l-15-47.4C41.7,2.6,43.6,0,46.3,0h11
	C59,0,60.6,1.1,61.1,2.8z"/>
<g class="st2">
	<path class="st3" d="M46.5,37.8L35.8,3.4c-0.6-2-2.5-3.4-4.7-3.4c-2.6,0-4.8,2.1-4.9,4.7l-1.3,25.7c0,0.9,0.1,1.8,0.3,2.7L31,52.6
		c0.5,1.7,2.1,2.9,3.8,2.9h5.4c1.7,0,3.3-1.1,3.8-2.8l2.4-7.5C47.3,42.7,47.3,40.2,46.5,37.8z"/>
	
		<linearGradient id="SVGID_1_" gradientUnits="userSpaceOnUse" x1="28.4403" y1="48.3658" x2="48.4403" y2="54.3658" gradientTransform="matrix(1 0 0 1 0 -22)">
		<stop  offset="0" style="stop-color:#000000;stop-opacity:0.2"/>
		<stop  offset="0.9115" style="stop-color:#FFFFFF;stop-opacity:0"/>
	</linearGradient>
	<path class="st4" d="M46.5,37.8L35.8,3.4c-0.6-2-2.5-3.4-4.7-3.4c-2.6,0-4.8,2.1-4.9,4.7l-1.3,25.7c0,0.9,0.1,1.8,0.3,2.7L31,52.6
		c0.5,1.7,2.1,2.9,3.8,2.9h5.4c1.7,0,3.3-1.1,3.8-2.8l2.4-7.5C47.3,42.7,47.3,40.2,46.5,37.8z"/>
</g>
<path class="st1" d="M20.3,0h11C34,0,36,2.6,35.2,5.2L20.3,52.9c-0.5,1.7-2.1,2.8-3.8,2.8h-11c-2.7,0-4.6-2.6-3.8-5.2L16.5,2.8
	C17,1.1,18.6,0,20.3,0z"/>
<g>
	<path class="st5" d="M134.4,16.3h4.9v23.3h-4.2L124.6,25v14.5h-4.9V16.3h4.5l10.2,14.2V16.3z"/>
	<path class="st5" d="M158.7,21.6h3.6v18h-3.8l-0.4-1.6c-1.6,1.4-3.6,2.1-5.8,2.1c-1.8,0-3.4-0.4-4.8-1.2c-1.4-0.8-2.6-2-3.4-3.4
		s-1.2-3.1-1.2-4.9c0-1.8,0.4-3.4,1.2-4.8c0.8-1.4,1.9-2.6,3.4-3.4c1.4-0.8,3-1.2,4.8-1.2c2.3,0,4.2,0.7,5.9,2.2L158.7,21.6z
		 M149.2,34.1c0.9,0.9,2.1,1.4,3.5,1.4s2.6-0.5,3.5-1.4s1.4-2.1,1.4-3.5s-0.5-2.6-1.4-3.5s-2.1-1.4-3.5-1.4s-2.6,0.5-3.5,1.4
		s-1.4,2.1-1.4,3.5S148.2,33.2,149.2,34.1z"/>
	<path class="st5" d="M176.8,21.1c1.8,0,3.4,0.4,4.8,1.2c1.4,0.8,2.6,2,3.4,3.4c0.8,1.5,1.2,3.1,1.2,4.9c0,1.8-0.4,3.4-1.2,4.9
		s-1.9,2.6-3.4,3.4c-1.4,0.8-3,1.2-4.8,1.2s-3.5-0.5-4.9-1.5v7.5H167V21.6h3.2l0.8,1.6C172.6,21.9,174.6,21.1,176.8,21.1z
		 M172.9,34.1c0.9,0.9,2.1,1.4,3.5,1.4s2.6-0.5,3.5-1.4s1.4-2.1,1.4-3.5s-0.5-2.6-1.4-3.5s-2.1-1.4-3.5-1.4s-2.6,0.5-3.5,1.4
		s-1.4,2.1-1.4,3.5C171.5,32,172,33.2,172.9,34.1z"/>
	<path class="st5" d="M195,35.1h7.6v4.5h-14.8v-0.5l7.6-13h-6.9v-4.4h14.1v0.7L195,35.1z"/>
</g>
<g class="st2">
	<g class="st6">
		
			<linearGradient id="SVGID_00000049200486771153396460000001890682540849894023_" gradientUnits="userSpaceOnUse" x1="18.6281" y1="42.0251" x2="56.4335" y2="-4.0503" gradientTransform="matrix(1 0 0 -1 0 58)">
			<stop  offset="0" style="stop-color:#38B9EC"/>
			<stop  offset="0.771" style="stop-color:#594C9A"/>
		</linearGradient>
		<polygon style="fill:url(#SVGID_00000049200486771153396460000001890682540849894023_);" points="24.7,15.9 49.4,30.2 49.4,22.3 
			24.7,8 14.4,14 14.4,42 38.6,56 45.4,52.1 45.4,44.2 38.6,48.1 21.2,38.1 21.2,18 		"/>
		
			<linearGradient id="SVGID_00000135658966718444102990000009350902774947090313_" gradientUnits="userSpaceOnUse" x1="30.6821" y1="51.9156" x2="68.4875" y2="5.8401" gradientTransform="matrix(1 0 0 -1 0 58)">
			<stop  offset="0" style="stop-color:#38B9EC"/>
			<stop  offset="0.771" style="stop-color:#594C9A"/>
		</linearGradient>
		<polygon style="fill:url(#SVGID_00000135658966718444102990000009350902774947090313_);" points="38.6,0 31.8,4 31.8,11.9 
			38.6,7.9 56,18 56,38.1 52.5,40.1 27.8,25.9 27.8,33.8 52.5,48 62.8,42 62.8,14 		"/>
	</g>
</g>
<g>
	
		<linearGradient id="SVGID_00000111159359233718559820000001858751493502786439_" gradientUnits="userSpaceOnUse" x1="61.0576" y1="41.9892" x2="98.8521" y2="-4.073" gradientTransform="matrix(1 0 0 -1 0 58)">
		<stop  offset="0" style="stop-color:#384797"/>
		<stop  offset="1" style="stop-color:#CA4A94"/>
	</linearGradient>
	<polygon style="fill:url(#SVGID_00000111159359233718559820000001858751493502786439_);" points="67.2,15.9 91.8,30.2 91.8,22.3 
		67.2,8 56.8,14 56.8,42 81.1,56 87.9,52.1 87.9,44.2 81.1,48.1 63.7,38 63.7,18 	"/>
	
		<linearGradient id="SVGID_00000043437402239803860020000015346793811245569979_" gradientUnits="userSpaceOnUse" x1="73.1714" y1="51.9287" x2="110.966" y2="5.8665" gradientTransform="matrix(1 0 0 -1 0 58)">
		<stop  offset="0" style="stop-color:#384797"/>
		<stop  offset="1" style="stop-color:#CA4A94"/>
	</linearGradient>
	<polygon style="fill:url(#SVGID_00000043437402239803860020000015346793811245569979_);" points="81.1,0 74.3,3.9 74.3,11.9 
		81.1,7.9 98.5,18 98.5,38 95,40.1 70.3,25.9 70.3,33.8 95,48 105.3,42 105.3,14 	"/>
</g>
</svg>
